<?xml version="1.0" encoding="utf-8"?>
<!-- Generator: Adobe Illustrator 18.0.0, SVG Export Plug-In . SVG Version: 6.00 Build 0)  -->
<!DOCTYPE svg PUBLIC "-//W3C//DTD SVG 1.1//EN" "http://www.w3.org/Graphics/SVG/1.1/DTD/svg11.dtd">
<svg version="1.1" id="Layer_1" xmlns="http://www.w3.org/2000/svg" xmlns:xlink="http://www.w3.org/1999/xlink" x="0px" y="0px"
	 width="150px" height="150px" viewBox="0 0 150 150" enable-background="new 0 0 150 150" xml:space="preserve">
<path fill-rule="evenodd" clip-rule="evenodd" d="M0,75c0,41.4,33.6,75,75,75s75-33.6,75-75S116.4,0,75,0S0,33.6,0,75z M108.1,41.9
	c-1.7,6.8-3,11.4-4.3,16.2c-1.3,4.8-2.3,8.9-3,12.2c-0.7,3.3-1.2,6-1.4,8.1c-0.2,2-0.1,3.6,0.2,4.8c0.3,0.9,0.7,1.6,1.2,2
	c0.5,0.5,1.1,0.6,1.8,0.4c1.5-0.5,3.4-2.1,5.6-4.7c2.2-2.7,4.7-6.8,7.5-12.4c1.1-2.3,2.2-4.5,3.2-6.8c1-2.2,2-4.4,2.9-6.4
	c0.9-2,1.7-3.9,2.3-5.5c0.7-1.6,1.2-3,1.7-3.9l1.2,0.3c-0.5,1.5-1.2,3.2-2,5.2c-0.8,2-1.7,4.1-2.7,6.3c-1,2.2-2,4.4-3,6.6
	c-1,2.2-2.1,4.3-3.1,6.3c-3,5.8-5.7,10.1-8.3,12.9c-2.6,2.8-5.2,4.6-7.8,5.4c-2.5,0.8-4.7,0.8-6.5-0.2c-1.8-0.9-3.1-2.5-3.8-4.7
	c-0.5-1.5-0.7-3.2-0.7-5c0-1.8,0.3-4.2,0.9-7c0.6-2.9,1.4-6.5,2.5-10.8c1.1-4.3,3.8-16.8,4.3-16.8C106.1,45.8,108.1,41.9,108.1,41.9
	z M24.7,107.4c-0.5-1.4-0.7-2.9-0.8-4.4c-0.1-1.5,0.1-2.9,0.6-4.3c0.4-1.3,1.1-2.5,2.1-3.6c1-1,2.2-1.8,3.8-2.3
	c1.5-0.5,3-0.5,4.6-0.1c1.5,0.5,2.6,1.5,3.1,3.2c0.7,2.1,0.4,3.9-0.7,5.4c-1.1,1.6-2.6,2.7-4.5,3.4c0,1.2,0.1,2.3,0.3,3.4
	s0.5,2.2,0.9,3.2c0.8,2.6,2.2,4.6,4,5.9c1.8,1.4,3.9,2.3,6.2,2.7c2.3,0.4,4.7,0.5,7.2,0.2c2.5-0.3,4.8-0.8,7-1.4
	c3.8-1.2,6.8-3,9.2-5.2c2.3-2.3,4.1-4.9,5.3-7.8c1.2-3,2-6.1,2.3-9.5c0.3-3.4,0.3-6.8-0.1-10.3c-0.3-3.5-0.9-6.9-1.7-10.3
	c-0.8-3.4-1.6-6.6-2.3-9.5c-1.5-5.3-2.4-10.5-2.7-15.6c-0.3-5.1,0.2-9.8,1.4-14.1c1.2-4.3,3.3-8.1,6.3-11.3
	c2.9-3.2,6.9-5.6,11.9-7.3c2.1-0.7,8.4-1.2,12.5-0.3c6.6,1.4,9.9,7,10,11.5c0.1,3.5-2.5,7.3-7.5,7.9c-1.6,0.4-3.1,0.3-4.3,0.3
	c-4.1-0.6-6.9-3.6-6.9-7c0-2.9,2.9-5.6,6.2-6.6c-1.1-2.2-2.8-4-7.1-4.3c-2.4-0.2-9,2.9-10.4,4.9c-1.5,2.1-2.4,4.5-2.9,7.4
	c-0.5,2.9-0.5,6.1-0.2,9.6c0.4,3.5,1,7.2,1.7,11c0.7,3.8,1.6,7.7,2.5,11.7c0.9,4,1.8,7.9,2.5,11.7c0.7,3.4,1,7.2,0.8,11.4
	c-0.1,4.2-1.1,8.5-2.8,12.7c-1.7,4.2-4.5,8.2-8.3,11.8c-3.8,3.7-9,6.6-15.7,8.7c-3.3,1.1-6.6,1.7-10.1,1.8c-3.5,0.2-6.7-0.3-9.8-1.3
	c-3-1-5.8-2.6-8.2-4.9C27.7,114,25.9,111.1,24.7,107.4z"/>
</svg>
